<svg xmlns="http://www.w3.org/2000/svg" width="36" height="27" viewBox="0 0 36 27"><g><g><g><path fill="#26337a" d="M0 1.8A1.8 1.8 0 0 1 1.8 0h32.516a1.8 1.8 0 0 1 1.8 1.8v23.4a1.8 1.8 0 0 1-1.8 1.8H1.8A1.8 1.8 0 0 1 0 25.2z"/></g><g><path fill="#fffffe" d="M13.31 17.793l1.388-8.578h2.219l-1.388 8.578H13.31"/></g><g><path fill="#fffffe" d="M23.578 9.42a5.5 5.5 0 0 0-1.988-.36c-2.194 0-3.738 1.165-3.751 2.833-.014 1.233 1.102 1.922 1.943 2.332.865.42 1.155.689 1.152 1.065-.006.575-.69.838-1.328.838-.889 0-1.36-.13-2.09-.45l-.286-.137-.31 1.922c.517.239 1.477.446 2.472.457 2.331 0 3.846-1.15 3.864-2.932.008-.978-.583-1.72-1.864-2.332-.775-.398-1.251-.662-1.246-1.064 0-.357.402-.74 1.271-.74a3.903 3.903 0 0 1 1.661.33l.2.099.3-1.86"/></g><g><path fill="#fffffe" d="M29.273 9.22l1.795 8.578H29.01s-.204-.987-.27-1.286l-2.842-.005c-.086.232-.467 1.29-.467 1.29H23.1l3.295-7.865c.233-.56.631-.712 1.163-.712zm-2.738 5.531h1.842c-.087-.429-.513-2.477-.513-2.477l-.15-.74c-.112.321-.308.84-.295.818 0 0-.7 1.906-.884 2.4z"/></g><g><path fill="#fffffe" d="M11.448 9.22l-2.172 5.852-.232-1.19c-.405-1.37-1.665-2.856-3.074-3.6l1.987 7.507 2.348-.002 3.494-8.567h-2.351"/></g><g><path fill="#ec982d" d="M7.268 9.21H3.688l-.029.178c2.784.71 4.626 2.427 5.39 4.49l-.777-3.944C8.14 9.39 7.75 9.23 7.267 9.21"/></g></g></g></svg>