<svg xmlns="http://www.w3.org/2000/svg" width="36" height="27" viewBox="0 0 36 27"><g><g><g><path fill="#0072ce" d="M-.12 1.8A1.8 1.8 0 0 1 1.68 0h32.516a1.8 1.8 0 0 1 1.8 1.8v23.4a1.8 1.8 0 0 1-1.8 1.8H1.68a1.8 1.8 0 0 1-1.8-1.8z"/></g><g><path fill="#fff" d="M19.295 16.023c0-1.008-.78-1.199-1.474-1.199h-2.794l-1.113 1.193-1.076-1.193H9.321v3.64h3.464l1.12-1.205 1.076 1.204h1.7v-1.22h1.091c.765 0 1.523-.209 1.523-1.22zm-9.102 1.672v-.722h1.916v-.74h-1.916v-.66h2.188l.954 1.057-.997 1.065zm4.28-1.045l1.333-1.435v2.917zm2.216-.156v-.923h1.128c.312 0 .529.127.529.444 0 .313-.207.479-.54.479zm7.038-1.67v3.64h2.912v-.756l-2.043-.003v-.724h1.993v-.743h-1.993v-.661h2.043v-.753zm-1.106 1.948c.23-.09.62-.387.62-.968 0-.415-.173-.642-.45-.808-.287-.153-.61-.172-1.053-.172h-2.021v3.64h.88v-1.33h.935c.32 0 .514.031.642.162.163.169.142.493.142.712v.455h.879v-.721c-.004-.32-.022-.487-.145-.664a.951.951 0 0 0-.43-.306zm-.968-.388h-1.057v-.814h1.072c.155 0 .31.004.415.066.113.058.18.17.18.326a.39.39 0 0 1-.18.348c-.116.068-.26.074-.43.074zm8.339.16c-.198-.2-.525-.281-1-.293l-.471-.012c-.15 0-.249-.01-.34-.042a.279.279 0 0 1-.192-.27c0-.116.035-.204.131-.263.088-.06.192-.065.35-.065h1.607v-.775h-1.755c-.918 0-1.252.556-1.252 1.084 0 1.151 1.025 1.098 1.844 1.126.152 0 .245.025.312.08.06.051.107.136.107.242 0 .099-.044.18-.104.237-.074.068-.191.09-.357.09h-1.699v.78h1.705c.883 0 1.376-.365 1.376-1.148 0-.374-.092-.596-.262-.771zm3.482 1.454v.946c-.35.168-.811.234-1.283.234h-2.268v-.325c-.262.21-.737.325-1.19.325h-7.15v-1.174c0-.143-.014-.15-.159-.15h-.113v1.324h-2.354v-1.37c-.394.169-.84.184-1.219.178h-.28v1.195l-2.853-.003-.702-.79-.744.79H8.53V14.1h4.717l.677.777.723-.777h3.158c.365 0 .964.038 1.233.297V14.1h2.822c.265 0 .84.053 1.18.297V14.1h4.278v.297c.213-.203.663-.297 1.046-.297h2.395v.297c.252-.18.607-.297 1.096-.297h1.62v.724H31.73c-.918 0-1.256.556-1.256 1.084 0 1.151 1.025 1.098 1.847 1.126.153 0 .245.025.309.08.064.051.106.136.106.242a.32.32 0 0 1-.103.237c-.07.068-.187.09-.354.09h-1.683v.78h1.69c.56 0 .975-.156 1.187-.465zm-.01-1.374c-.024-.031-.045-.062-.08-.09-.193-.198-.51-.28-.984-.291l-.47-.013a.989.989 0 0 1-.334-.041.274.274 0 0 1-.19-.27c0-.115.036-.202.127-.26.088-.06.193-.066.351-.066h1.58z"/></g><g><path fill="#fff" d="M2.34 12.915v-2.662L3.4 7.84h2.282l.294.6v-.6h2.676l.585 1.31.57-1.31h8.496c.387 0 .734.072.989.296V7.84h2.325v.296c.4-.218.897-.296 1.46-.296h3.37l.313.6v-.6h2.495l.34.6v-.6h2.432v5.075H29.57l-.464-.768v.768H26.04l-.333-.808h-.755l-.34.808H23.02c-.624 0-1.099-.147-1.404-.31v.31h-3.781v-1.152c0-.162-.03-.171-.128-.175h-.142l.004 1.327h-7.312v-.627l-.262.63H8.468l-.262-.621v.618H5.264l-.337-.808h-.754l-.338.808zm28.907-.715V8.562h-.897v2.534l-1.538-2.534h-1.333v3.441l-1.481-3.441h-1.312l-1.233 2.861h-.393c-.23 0-.475-.044-.61-.188-.163-.183-.24-.464-.24-.854 0-.382.102-.671.251-.824.174-.169.354-.216.673-.216h.83v-.78h-.847c-.603 0-1.046.134-1.33.425-.376.39-.471.883-.471 1.423 0 .661.16 1.08.467 1.389.305.309.844.402 1.27.402h1.023l.33-.812h1.819l.34.812h1.783V9.47l1.658 2.73zm-10.35 0V8.561h-.903v3.64zm-1.41-2.659c0-.405-.166-.643-.443-.805-.283-.163-.613-.175-1.06-.175h-2.013v3.64h.875v-1.324h.94c.315 0 .51.027.638.155.159.175.138.49.138.71l.003.458h.883v-.715c0-.325-.022-.486-.145-.667a1.014 1.014 0 0 0-.433-.307c.227-.09.617-.39.617-.97zm-4.122 2.66v-.753h-2.049v-.727h2v-.746h-2v-.656h2.049v-.758H12.44v3.64zm-3.576 0V8.56h-1.457L9.28 11.03 8.134 8.56H6.706v3.445L5.218 8.561h-1.3l-1.568 3.64h.95l.34-.813h1.823l.336.812h1.78V9.348L8.85 12.2h.768l1.27-2.85.003 2.85zm14.137-1.571H24.72l.602-1.45zm-8.023-.503h-1.057V9.32h1.071c.152 0 .31.007.413.066.113.053.183.166.183.321 0 .16-.067.287-.18.346-.12.073-.26.075-.43.075zm-13.95.503l.6-1.45.604 1.45z"/></g></g></g></svg>