<svg xmlns="http://www.w3.org/2000/svg" width="37" height="27" viewBox="0 0 37 27"><g><g><g><path fill="#006" d="M.63 1.8A1.8 1.8 0 0 1 2.43 0h32.516a1.8 1.8 0 0 1 1.8 1.8v23.4a1.8 1.8 0 0 1-1.8 1.8H2.43a1.8 1.8 0 0 1-1.8-1.8z"/></g><g><path fill="#c00" d="M21.631 13.722c0 4.85-3.886 8.781-8.68 8.781-4.795 0-8.681-3.93-8.681-8.781 0-4.85 3.886-8.782 8.68-8.782 4.795 0 8.681 3.932 8.681 8.782"/></g><g><path fill="#f90" d="M24.606 4.94c-2.244 0-4.287.86-5.828 2.273a8.908 8.908 0 0 0-.876.93h1.754c.24.295.46.605.661.93H17.24a8.857 8.857 0 0 0-.5.93h4.077c.14.301.262.611.368.93h-4.813c-.1.302-.185.613-.252.93h5.317a8.945 8.945 0 0 1-.252 4.649h-4.813c.106.318.228.628.368.93h4.077c-.149.32-.315.63-.5.93H17.24c.2.324.422.634.662.929h1.753c-.27.331-.562.642-.877.93a8.593 8.593 0 0 0 5.828 2.272c4.794 0 8.68-3.93 8.68-8.781 0-4.85-3.886-8.782-8.68-8.782"/></g><g><path fill="#006" d="M10.82 16.293l.019-.375c-.239.297-.556.438-.988.438-.51 0-.861-.403-.861-.99 0-.882.609-1.396 1.654-1.396.108 0 .244.01.385.028.029-.12.036-.17.036-.235 0-.24-.164-.33-.604-.33a3.11 3.11 0 0 0-.997.164l.13-.815c.47-.14.78-.192 1.128-.192.81 0 1.238.367 1.237 1.062.002.187-.029.416-.076.718-.082.525-.257 1.65-.281 1.923h-.781zm-.106-1.629c-.54 0-.813.186-.813.552 0 .226.134.369.341.369.388 0 .668-.37.684-.906a1.634 1.634 0 0 0-.212-.015z"/></g><g><path fill="#006" d="M8.6 16.294h-.944l.54-3.424-1.205 3.424h-.642l-.08-3.404-.567 3.404H4.82l.737-4.454h1.355l.082 2.493.827-2.493h1.507l-.729 4.454"/></g><g><path fill="#006" d="M25.67 16.293l.018-.375c-.238.297-.555.438-.987.438-.511 0-.861-.403-.861-.99 0-.882.61-1.396 1.654-1.396.107 0 .244.01.384.028.03-.12.037-.17.037-.235 0-.24-.164-.33-.604-.33a3.116 3.116 0 0 0-.998.164l.131-.815c.47-.14.78-.192 1.128-.192.81 0 1.238.367 1.237 1.062.002.187-.029.416-.076.718-.082.525-.258 1.65-.282 1.923h-.78zm-.106-1.629c-.54 0-.813.186-.813.552 0 .226.133.369.341.369.388 0 .667-.37.684-.906a1.627 1.627 0 0 0-.212-.015z"/></g><g><path fill="#006" d="M15.792 16.236a2.134 2.134 0 0 1-.677.117c-.482 0-.745-.28-.745-.794-.006-.16.07-.58.13-.964.054-.338.408-2.468.408-2.468h.937l-.11.548h.566l-.127.869h-.568c-.109.687-.264 1.544-.266 1.658 0 .186.099.268.323.268a.76.76 0 0 0 .254-.034l-.125.8"/></g><g><path fill="#006" d="M18.14 14.062h-1.034c.086-.417.3-.647.598-.647.535 0 .441.571.436.647zm.526 2.147l.156-.9a2.201 2.201 0 0 1-.973.227c-.546 0-.878-.219-.815-.744H18.9c.081-.366.115-.625.115-.891 0-.8-.493-1.311-1.265-1.311-.945 0-1.64.912-1.64 2.15 0 1.061.547 1.615 1.595 1.616.33.001.64-.047.961-.147z"/></g><g><path fill="#006" d="M12.167 13.816c0 .458.22.774.717 1.012.382.181.441.235.441.4 0 .225-.168.327-.541.327a2.62 2.62 0 0 1-.845-.143l-.129.837c.214.047.405.09.98.107.995 0 1.454-.383 1.454-1.21 0-.498-.192-.79-.664-1.01-.395-.184-.44-.225-.44-.394 0-.196.156-.296.46-.296.186 0 .438.02.678.055l.134-.84a6.292 6.292 0 0 0-.83-.071c-1.054 0-1.419.557-1.415 1.226"/></g><g><path fill="#006" d="M23.25 12.689c.263 0 .507.068.843.24l.154-.965c-.138-.055-.624-.377-1.036-.377-.63 0-1.164.317-1.538.838-.547-.183-.773.187-1.048.555l-.245.058c.019-.121.036-.242.03-.364h-.866c-.118 1.12-.327 2.254-.491 3.374l-.043.243h.943c.157-1.033.243-1.694.296-2.142l.355-.198c.053-.2.219-.267.552-.259a4.092 4.092 0 0 0-.067.741c0 1.184.633 1.92 1.647 1.92.26 0 .485-.034.833-.13l.165-1.013c-.313.155-.568.228-.8.228-.548 0-.88-.409-.88-1.084 0-.98.493-1.665 1.197-1.665"/></g><g><path fill="#006" d="M29.57 14.743c0-.712.304-1.216.731-1.216.324 0 .5.249.5.709 0 .718-.309 1.222-.747 1.222-.321 0-.484-.241-.484-.715zm1.453-1.616c-.258-.343-.534-.591-.9-.591-.475 0-.908.364-1.192.901a7.684 7.684 0 0 1-.802-.223c.031-.298.044-.48.041-.542h-.866c-.117 1.121-.327 2.257-.49 3.379l-.044.243h.943c.127-.836.225-1.53.296-2.081.323-.295.484-.551.81-.534a3.137 3.137 0 0 0-.23 1.175c0 .905.453 1.503 1.139 1.503.345 0 .61-.12.869-.4l-.045.337h.892l.718-4.454h-.93z"/></g><g><path fill="#fff" d="M8.869 16.034h-.942l.54-3.424-1.206 3.424H6.62l-.08-3.404-.567 3.404H5.09l.737-4.454h1.355l.038 2.757.914-2.757h1.464l-.73 4.454"/></g><g><path fill="#fff" d="M11.1 16.033l.019-.376c-.239.297-.556.44-.988.44-.51 0-.861-.405-.861-.992 0-.885.61-1.4 1.655-1.4.106 0 .243.01.384.029a.912.912 0 0 0 .036-.236c0-.24-.164-.33-.604-.33a3.092 3.092 0 0 0-.998.163l.131-.816c.47-.14.78-.193 1.128-.193.81 0 1.238.369 1.237 1.065.002.186-.029.417-.076.72-.082.524-.258 1.652-.282 1.926h-.78zm-.106-1.63c-.54 0-.813.185-.813.552 0 .226.134.37.342.37.387 0 .667-.37.683-.907a1.575 1.575 0 0 0-.212-.015z"/></g><g><path fill="#fff" d="M24.518 11.691l-.154.967c-.337-.171-.58-.24-.842-.24-.703 0-1.197.688-1.197 1.669 0 .676.332 1.084.88 1.084.232 0 .488-.072.8-.228l-.166 1.015c-.347.095-.571.13-.832.13-1.015 0-1.647-.738-1.647-1.923 0-1.592.874-2.705 2.123-2.705.411 0 .897.176 1.035.231"/></g><g><path fill="#fff" d="M25.94 16.033l.018-.376c-.238.297-.556.44-.987.44-.511 0-.861-.405-.861-.992 0-.885.609-1.4 1.654-1.4.107 0 .244.01.384.029a.908.908 0 0 0 .037-.236c0-.24-.164-.33-.604-.33-.461-.005-.841.11-.998.163l.131-.816c.47-.14.779-.193 1.128-.193.809 0 1.238.369 1.237 1.065.002.186-.029.417-.076.72-.082.524-.258 1.652-.282 1.926h-.78zm-.106-1.63c-.54 0-.813.185-.813.552 0 .226.133.37.341.37.388 0 .667-.37.683-.907a1.564 1.564 0 0 0-.211-.015z"/></g><g><path fill="#fff" d="M16.062 15.976a2.13 2.13 0 0 1-.677.117c-.481 0-.745-.28-.745-.795-.006-.16.07-.581.13-.966.054-.339.408-2.472.408-2.472h.937l-.11.548h.482l-.129.87h-.482c-.109.69-.264 1.548-.266 1.662 0 .187.099.268.323.268.107 0 .19-.01.254-.034l-.125.802"/></g><g><path fill="#fff" d="M18.407 13.792H17.38c.086-.416.298-.646.595-.646.532 0 .438.57.433.646zm.53 2.157l.155-.903c-.336.159-.639.23-.974.23-.545 0-.877-.22-.814-.747h1.866c.08-.367.115-.626.115-.892 0-.803-.493-1.315-1.266-1.315-.944 0-1.639.914-1.639 2.155 0 1.063.546 1.619 1.595 1.62.329 0 .64-.048.962-.148z"/></g><g><path fill="#fff" d="M12.447 13.551c0 .46.22.776.717 1.014.382.182.441.236.441.4 0 .227-.168.329-.541.329-.281 0-.543-.044-.845-.143l-.129.838c.214.047.405.09.98.107.995 0 1.454-.383 1.454-1.213 0-.499-.192-.791-.664-1.011-.395-.184-.44-.225-.44-.395 0-.196.156-.297.46-.297.185 0 .438.02.678.055l.134-.842a6.33 6.33 0 0 0-.83-.07c-1.054 0-1.419.558-1.415 1.228"/></g><g><path fill="#fff" d="M30.324 15.197c-.32 0-.483-.24-.483-.715 0-.714.303-1.22.73-1.22.324 0 .5.25.5.712 0 .719-.308 1.223-.747 1.223zm1.39.837l.718-4.461h-.93l-.209 1.289c-.257-.344-.534-.495-.9-.495-.83 0-1.533 1.017-1.533 2.224 0 .908.453 1.506 1.138 1.506.345 0 .61-.12.869-.4l-.044.337z"/></g><g><path fill="#fff" d="M27.574 12.409c-.118 1.121-.327 2.257-.491 3.379l-.043.243h.943c.337-2.215.418-2.647.947-2.593.084-.454.24-.85.357-1.05-.394-.084-.615.141-.904.57.023-.185.065-.365.057-.55h-.866"/></g><g><path fill="#fff" d="M19.815 12.409c-.119 1.121-.329 2.257-.492 3.379l-.043.243h.943c.337-2.215.418-2.647.946-2.593.085-.454.242-.85.358-1.05-.394-.084-.615.141-.903.57.023-.185.064-.365.056-.55h-.865"/></g></g></g></svg>