<svg xmlns="http://www.w3.org/2000/svg" width="37" height="27" viewBox="0 0 37 27"><defs><clipPath id="sziea"><path fill="#fff" d="M.25 1.8A1.8 1.8 0 0 1 2.05 0h32.516a1.8 1.8 0 0 1 1.8 1.8v23.4a1.8 1.8 0 0 1-1.8 1.8H2.05a1.8 1.8 0 0 1-1.8-1.8z"/></clipPath></defs><g><g><g><g><path fill="#fff" d="M.25 1.8A1.8 1.8 0 0 1 2.05 0h32.516a1.8 1.8 0 0 1 1.8 1.8v23.4a1.8 1.8 0 0 1-1.8 1.8H2.05a1.8 1.8 0 0 1-1.8-1.8z"/><path fill="none" stroke="#e6772f" stroke-miterlimit="50" stroke-width="1.8" d="M.25 1.8A1.8 1.8 0 0 1 2.05 0h32.516a1.8 1.8 0 0 1 1.8 1.8v23.4a1.8 1.8 0 0 1-1.8 1.8H2.05a1.8 1.8 0 0 1-1.8-1.8z" clip-path="url(&quot;#sziea&quot;)"/></g><g><path fill="#e6772f" d="M11.14 26.996h23.429a1.8 1.8 0 0 0 1.8-1.8V18.28s-8.91 6.021-25.229 8.716z"/></g></g><g><path fill="#1a1919" d="M4.394 10.39c1.548 0 2.629.914 2.629 2.23 0 .658-.331 1.293-.89 1.713-.47.355-1.005.516-1.748.516H2.99V10.39zm1.117 3.34c.329-.266.527-.693.527-1.122 0-.426-.198-.838-.527-1.106-.318-.258-.69-.359-1.309-.359h-.256v2.94h.256c.619 0 1.005-.107 1.31-.354z"/></g><g><path fill="#1a1919" d="M7.46 10.39h.952v4.46H7.46z"/></g><g><path fill="#1a1919" d="M10.755 12.093c-.575-.192-.743-.32-.743-.56 0-.28.3-.493.713-.493.286 0 .522.104.773.36l.497-.594a2.258 2.258 0 0 0-1.438-.496c-.867 0-1.528.549-1.528 1.275 0 .616.308.93 1.204 1.226.375.119.565.2.661.255.191.112.286.273.286.459 0 .363-.315.63-.742.63-.454 0-.822-.208-1.042-.597l-.616.543c.44.588.968.85 1.695.85.992 0 1.69-.604 1.69-1.465 0-.71-.323-1.031-1.41-1.393"/></g><g><path fill="#1a1919" d="M12.46 12.621c0 1.312 1.13 2.328 2.586 2.328.41 0 .763-.074 1.196-.26v-1.025c-.383.35-.719.489-1.154.489-.962 0-1.643-.634-1.643-1.538 0-.854.703-1.53 1.601-1.53.453 0 .8.146 1.196.501v-1.023c-.419-.193-.762-.273-1.176-.273-1.447 0-2.606 1.036-2.606 2.331"/></g><g><path fill="#1a1919" d="M23.988 13.384l-1.306-2.994H21.64l2.077 4.572h.512l2.117-4.572h-1.034l-1.324 2.994"/></g><g><path fill="#1a1919" d="M26.78 14.85h2.709v-.756h-1.753V12.89h1.686v-.755h-1.686v-.99h1.753v-.755H26.78v4.46"/></g><g><path fill="#1a1919" d="M33.271 11.706c0 .682-.395 1.13-1.115 1.264l1.541 1.88h-1.175l-1.32-1.794h-.124v1.793h-.958V10.39h1.419c1.103 0 1.732.48 1.732 1.316zm-1.917.734c.616 0 .937-.24.937-.686 0-.434-.321-.662-.921-.662h-.295v1.348z"/></g><g><path fill="#e6772f" d="M21.767 12.625c0 1.284-1.143 2.324-2.554 2.324-1.41 0-2.553-1.04-2.553-2.324 0-1.284 1.143-2.325 2.553-2.325 1.411 0 2.554 1.04 2.554 2.325"/></g></g></g></svg>