<?xml version="1.0" encoding="utf-8"?><svg viewBox="0 0 37 27" xmlns="http://www.w3.org/2000/svg" xmlns:xlink="http://www.w3.org/1999/xlink"><style>:root>svg{display:none}:root>svg:target{display:block}</style><svg viewBox="0 0 10 7" id="arrow_down" xmlns="http://www.w3.org/2000/svg"><path fill="#444" d="M5.016 6.732L.31 1.995 2.025.27l2.99 3.01L8.008.27l1.715 1.725-4.706 4.737z"/></svg><svg viewBox="0 0 12 12" id="icon-question" xmlns="http://www.w3.org/2000/svg"><path fill="#278ae2" d="M7.325 3.28A7.242 7.242 0 006.412 3h-.77c-.317.082-.943.325-1.06.413-.118.089-.464.445-.534.571-.07.126-.25.654-.267.872-.017.217.307.394.72.394.414 0 .752-.283.752-.45 0-.165.045-.45.053-.476a.931.931 0 01.201-.211 2.41 2.41 0 01.37-.154h.407c.18.1.482.4.501.52.019.12.019.417-.008.478a1.444 1.444 0 01-.203.297 5.55 5.55 0 01-.315.25 5.383 5.383 0 00-.353.268 3.09 3.09 0 00-.312.364c-.049.081-.21.375-.257.46-.046.085.254.154.667.154.413 0 .773-.179.77-.197-.003-.018.141-.183.204-.232.064-.05.297-.214.372-.26.074-.047.325-.22.39-.282.066-.061.271-.303.318-.389.048-.086.11-.244.142-.35.032-.106.032-.693 0-.791-.031-.099-.203-.436-.285-.527-.083-.09-.447-.377-.591-.442zM6 7.5A.75.75 0 106 9a.75.75 0 000-1.5zM1.5 6c0-2.482 2.018-4.5 4.5-4.5s4.5 2.018 4.5 4.5-2.018 4.5-4.5 4.5A4.505 4.505 0 011.5 6zM0 6c0 3.308 2.692 6 6 6s6-2.692 6-6-2.692-6-6-6-6 2.692-6 6z"/></svg><svg viewBox="0 0 36 27" id="logo-americanexpress" xmlns="http://www.w3.org/2000/svg"><path fill="#0072ce" d="M-.12 1.8A1.8 1.8 0 011.68 0h32.516a1.8 1.8 0 011.8 1.8v23.4a1.8 1.8 0 01-1.8 1.8H1.68a1.8 1.8 0 01-1.8-1.8z"/><path fill="#fff" d="M19.295 16.023c0-1.008-.78-1.199-1.474-1.199h-2.794l-1.113 1.193-1.076-1.193H9.321v3.64h3.464l1.12-1.205 1.076 1.204h1.7v-1.22h1.091c.765 0 1.523-.209 1.523-1.22zm-9.102 1.672v-.722h1.916v-.74h-1.916v-.66h2.188l.954 1.057-.997 1.065zm4.28-1.045l1.333-1.435v2.917zm2.216-.156v-.923h1.128c.312 0 .529.127.529.444 0 .313-.207.479-.54.479zm7.038-1.67v3.64h2.912v-.756l-2.043-.003v-.724h1.993v-.743h-1.993v-.661h2.043v-.753zm-1.106 1.948c.23-.09.62-.387.62-.968 0-.415-.173-.642-.45-.808-.287-.153-.61-.172-1.053-.172h-2.021v3.64h.88v-1.33h.935c.32 0 .514.031.642.162.163.169.142.493.142.712v.455h.879v-.721c-.004-.32-.022-.487-.145-.664a.951.951 0 00-.43-.306zm-.968-.388h-1.057v-.814h1.072c.155 0 .31.004.415.066.113.058.18.17.18.326a.39.39 0 01-.18.348c-.116.068-.26.074-.43.074zm8.339.16c-.198-.2-.525-.281-1-.293l-.471-.012a.996.996 0 01-.34-.042.279.279 0 01-.192-.27c0-.116.035-.204.131-.263.088-.06.192-.065.35-.065h1.607v-.775h-1.755c-.918 0-1.252.556-1.252 1.084 0 1.151 1.025 1.098 1.844 1.126.152 0 .245.025.312.08a.324.324 0 01.003.479c-.074.068-.191.09-.357.09h-1.699v.78h1.705c.883 0 1.376-.365 1.376-1.148 0-.374-.092-.596-.262-.771zm3.482 1.454v.946c-.35.168-.811.234-1.283.234h-2.268v-.325c-.262.21-.737.325-1.19.325h-7.15v-1.174c0-.143-.014-.15-.159-.15h-.113v1.324h-2.354v-1.37c-.394.169-.84.184-1.219.178h-.28v1.195l-2.853-.003-.702-.79-.744.79H8.53V14.1h4.717l.677.777.723-.777h3.158c.365 0 .964.038 1.233.297V14.1h2.822c.265 0 .84.053 1.18.297V14.1h4.278v.297c.213-.203.663-.297 1.046-.297h2.395v.297c.252-.18.607-.297 1.096-.297h1.62v.724H31.73c-.918 0-1.256.556-1.256 1.084 0 1.151 1.025 1.098 1.847 1.126.153 0 .245.025.309.08a.302.302 0 01.106.242.32.32 0 01-.103.237c-.07.068-.187.09-.354.09h-1.683v.78h1.69c.56 0 .975-.156 1.187-.465zm-.01-1.374c-.024-.031-.045-.062-.08-.09-.193-.198-.51-.28-.984-.291l-.47-.013a.989.989 0 01-.334-.041.274.274 0 01-.19-.27c0-.115.036-.202.127-.26.088-.06.193-.066.351-.066h1.58zM2.34 12.915v-2.662L3.4 7.84h2.282l.294.6v-.6h2.676l.585 1.31.57-1.31h8.496c.387 0 .734.072.989.296V7.84h2.325v.296c.4-.218.897-.296 1.46-.296h3.37l.313.6v-.6h2.495l.34.6v-.6h2.432v5.075H29.57l-.464-.768v.768H26.04l-.333-.808h-.755l-.34.808H23.02c-.624 0-1.099-.147-1.404-.31v.31h-3.781v-1.152c0-.162-.03-.171-.128-.175h-.142l.004 1.327h-7.312v-.627l-.262.63H8.468l-.262-.621v.618H5.264l-.337-.808h-.754l-.338.808zm28.907-.715V8.562h-.897v2.534l-1.538-2.534h-1.333v3.441l-1.481-3.441h-1.312l-1.233 2.861h-.393c-.23 0-.475-.044-.61-.188-.163-.183-.24-.464-.24-.854 0-.382.102-.671.251-.824.174-.169.354-.216.673-.216h.83v-.78h-.847c-.603 0-1.046.134-1.33.425-.376.39-.471.883-.471 1.423 0 .661.16 1.08.467 1.389.305.309.844.402 1.27.402h1.023l.33-.812h1.819l.34.812h1.783V9.47l1.658 2.73zm-10.35 0V8.561h-.903v3.64zm-1.41-2.659c0-.405-.166-.643-.443-.805-.283-.163-.613-.175-1.06-.175h-2.013v3.64h.875v-1.324h.94c.315 0 .51.027.638.155.159.175.138.49.138.71l.003.458h.883v-.715c0-.325-.022-.486-.145-.667a1.014 1.014 0 00-.433-.307c.227-.09.617-.39.617-.97zm-4.122 2.66v-.753h-2.049v-.727h2v-.746h-2v-.656h2.049v-.758H12.44v3.64zm-3.576 0V8.56h-1.457L9.28 11.03 8.134 8.56H6.706v3.445L5.218 8.561h-1.3l-1.568 3.64h.95l.34-.813h1.823l.336.812h1.78V9.348L8.85 12.2h.768l1.27-2.85.003 2.85zm14.137-1.571H24.72l.602-1.45zm-8.023-.503h-1.057V9.32h1.071c.152 0 .31.007.413.066.113.053.183.166.183.321 0 .16-.067.287-.18.346-.12.073-.26.075-.43.075zm-13.95.503l.6-1.45.604 1.45z"/></svg><svg viewBox="0 0 37 27" id="logo-discover" xmlns="http://www.w3.org/2000/svg"><defs><clipPath id="da"><path fill="#fff" d="M.25 1.8A1.8 1.8 0 012.05 0h32.516a1.8 1.8 0 011.8 1.8v23.4a1.8 1.8 0 01-1.8 1.8H2.05a1.8 1.8 0 01-1.8-1.8z"/></clipPath></defs><path fill="#fff" d="M.25 1.8A1.8 1.8 0 012.05 0h32.516a1.8 1.8 0 011.8 1.8v23.4a1.8 1.8 0 01-1.8 1.8H2.05a1.8 1.8 0 01-1.8-1.8z"/><path fill="none" stroke="#e6772f" stroke-miterlimit="50" stroke-width="1.8" d="M.25 1.8A1.8 1.8 0 012.05 0h32.516a1.8 1.8 0 011.8 1.8v23.4a1.8 1.8 0 01-1.8 1.8H2.05a1.8 1.8 0 01-1.8-1.8z" clip-path="url(#da)"/><path fill="#e6772f" d="M11.14 26.996h23.429a1.8 1.8 0 001.8-1.8V18.28s-8.91 6.021-25.229 8.716z"/><path fill="#1a1919" d="M4.394 10.39c1.548 0 2.629.914 2.629 2.23 0 .658-.331 1.293-.89 1.713-.47.355-1.005.516-1.748.516H2.99V10.39zm1.117 3.34a1.44 1.44 0 000-2.228c-.318-.258-.69-.359-1.309-.359h-.256v2.94h.256c.619 0 1.005-.107 1.31-.354zM7.46 10.39h.952v4.46H7.46zM10.755 12.093c-.575-.192-.743-.32-.743-.56 0-.28.3-.493.713-.493.286 0 .522.104.773.36l.497-.594a2.258 2.258 0 00-1.438-.496c-.867 0-1.528.549-1.528 1.275 0 .616.308.93 1.204 1.226.375.119.565.2.661.255.191.112.286.273.286.459 0 .363-.315.63-.742.63-.454 0-.822-.208-1.042-.597l-.616.543c.44.588.968.85 1.695.85.992 0 1.69-.604 1.69-1.465 0-.71-.323-1.031-1.41-1.393M12.46 12.621c0 1.312 1.13 2.328 2.586 2.328.41 0 .763-.074 1.196-.26v-1.025c-.383.35-.719.489-1.154.489-.962 0-1.643-.634-1.643-1.538 0-.854.703-1.53 1.601-1.53.453 0 .8.146 1.196.501v-1.023c-.419-.193-.762-.273-1.176-.273-1.447 0-2.606 1.036-2.606 2.331M23.988 13.384l-1.306-2.994H21.64l2.077 4.572h.512l2.117-4.572h-1.034l-1.324 2.994M26.78 14.85h2.709v-.756h-1.753V12.89h1.686v-.755h-1.686v-.99h1.753v-.755H26.78v4.46"/><g><path fill="#1a1919" d="M33.271 11.706c0 .682-.395 1.13-1.115 1.264l1.541 1.88h-1.175l-1.32-1.794h-.124v1.793h-.958V10.39h1.419c1.103 0 1.732.48 1.732 1.316zm-1.917.734c.616 0 .937-.24.937-.686 0-.434-.321-.662-.921-.662h-.295v1.348z"/></g><g><path fill="#e6772f" d="M21.767 12.625c0 1.284-1.143 2.324-2.554 2.324-1.41 0-2.553-1.04-2.553-2.324 0-1.284 1.143-2.325 2.553-2.325 1.411 0 2.554 1.04 2.554 2.325"/></g></svg><svg viewBox="0 0 37 27" id="logo-mastercard" xmlns="http://www.w3.org/2000/svg"><path fill="#006" d="M.63 1.8A1.8 1.8 0 012.43 0h32.516a1.8 1.8 0 011.8 1.8v23.4a1.8 1.8 0 01-1.8 1.8H2.43a1.8 1.8 0 01-1.8-1.8z"/><path fill="#c00" d="M21.631 13.722c0 4.85-3.886 8.781-8.68 8.781-4.795 0-8.681-3.93-8.681-8.781 0-4.85 3.886-8.782 8.68-8.782 4.795 0 8.681 3.932 8.681 8.782"/><path fill="#f90" d="M24.606 4.94c-2.244 0-4.287.86-5.828 2.273a8.908 8.908 0 00-.876.93h1.754c.24.295.46.605.661.93H17.24a8.857 8.857 0 00-.5.93h4.077c.14.301.262.611.368.93h-4.813c-.1.302-.185.613-.252.93h5.317a8.945 8.945 0 01-.252 4.649h-4.813c.106.318.228.628.368.93h4.077c-.149.32-.315.63-.5.93H17.24c.2.324.422.634.662.929h1.753c-.27.331-.562.642-.877.93a8.593 8.593 0 005.828 2.272c4.794 0 8.68-3.93 8.68-8.781 0-4.85-3.886-8.782-8.68-8.782"/><path fill="#006" d="M10.82 16.293l.019-.375c-.239.297-.556.438-.988.438-.51 0-.861-.403-.861-.99 0-.882.609-1.396 1.654-1.396.108 0 .244.01.385.028a.899.899 0 00.036-.235c0-.24-.164-.33-.604-.33a3.11 3.11 0 00-.997.164l.13-.815c.47-.14.78-.192 1.128-.192.81 0 1.238.367 1.237 1.062.002.187-.029.416-.076.718-.082.525-.257 1.65-.281 1.923h-.781zm-.106-1.629c-.54 0-.813.186-.813.552 0 .226.134.369.341.369.388 0 .668-.37.684-.906a1.634 1.634 0 00-.212-.015zM8.6 16.294h-.944l.54-3.424-1.205 3.424h-.642l-.08-3.404-.567 3.404H4.82l.737-4.454h1.355l.082 2.493.827-2.493h1.507l-.729 4.454M25.67 16.293l.018-.375c-.238.297-.555.438-.987.438-.511 0-.861-.403-.861-.99 0-.882.61-1.396 1.654-1.396.107 0 .244.01.384.028.03-.12.037-.17.037-.235 0-.24-.164-.33-.604-.33a3.116 3.116 0 00-.998.164l.131-.815c.47-.14.78-.192 1.128-.192.81 0 1.238.367 1.237 1.062.002.187-.029.416-.076.718-.082.525-.258 1.65-.282 1.923h-.78zm-.106-1.629c-.54 0-.813.186-.813.552 0 .226.133.369.341.369.388 0 .667-.37.684-.906a1.627 1.627 0 00-.212-.015zM15.792 16.236a2.134 2.134 0 01-.677.117c-.482 0-.745-.28-.745-.794-.006-.16.07-.58.13-.964.054-.338.408-2.468.408-2.468h.937l-.11.548h.566l-.127.869h-.568c-.109.687-.264 1.544-.266 1.658 0 .186.099.268.323.268a.76.76 0 00.254-.034l-.125.8M18.14 14.062h-1.034c.086-.417.3-.647.598-.647.535 0 .441.571.436.647zm.526 2.147l.156-.9a2.201 2.201 0 01-.973.227c-.546 0-.878-.219-.815-.744H18.9c.081-.366.115-.625.115-.891 0-.8-.493-1.311-1.265-1.311-.945 0-1.64.912-1.64 2.15 0 1.061.547 1.615 1.595 1.616.33.001.64-.047.961-.147zM12.167 13.816c0 .458.22.774.717 1.012.382.181.441.235.441.4 0 .225-.168.327-.541.327a2.62 2.62 0 01-.845-.143l-.129.837c.214.047.405.09.98.107.995 0 1.454-.383 1.454-1.21 0-.498-.192-.79-.664-1.01-.395-.184-.44-.225-.44-.394 0-.196.156-.296.46-.296.186 0 .438.02.678.055l.134-.84a6.292 6.292 0 00-.83-.071c-1.054 0-1.419.557-1.415 1.226M23.25 12.689c.263 0 .507.068.843.24l.154-.965c-.138-.055-.624-.377-1.036-.377-.63 0-1.164.317-1.538.838-.547-.183-.773.187-1.048.555l-.245.058c.019-.121.036-.242.03-.364h-.866c-.118 1.12-.327 2.254-.491 3.374l-.043.243h.943a65.06 65.06 0 00.296-2.142l.355-.198c.053-.2.219-.267.552-.259a4.092 4.092 0 00-.067.741c0 1.184.633 1.92 1.647 1.92.26 0 .485-.034.833-.13l.165-1.013c-.313.155-.568.228-.8.228-.548 0-.88-.409-.88-1.084 0-.98.493-1.665 1.197-1.665M29.57 14.743c0-.712.304-1.216.731-1.216.324 0 .5.249.5.709 0 .718-.309 1.222-.747 1.222-.321 0-.484-.241-.484-.715zm1.453-1.616c-.258-.343-.534-.591-.9-.591-.475 0-.908.364-1.192.901a7.684 7.684 0 01-.802-.223c.031-.298.044-.48.041-.542h-.866c-.117 1.121-.327 2.257-.49 3.379l-.044.243h.943c.127-.836.225-1.53.296-2.081.323-.295.484-.551.81-.534a3.137 3.137 0 00-.23 1.175c0 .905.453 1.503 1.139 1.503.345 0 .61-.12.869-.4l-.045.337h.892l.718-4.454h-.93z"/><path fill="#fff" d="M8.869 16.034h-.942l.54-3.424-1.206 3.424H6.62l-.08-3.404-.567 3.404H5.09l.737-4.454h1.355l.038 2.757.914-2.757h1.464l-.73 4.454M11.1 16.033l.019-.376c-.239.297-.556.44-.988.44-.51 0-.861-.405-.861-.992 0-.885.61-1.4 1.655-1.4.106 0 .243.01.384.029a.912.912 0 00.036-.236c0-.24-.164-.33-.604-.33a3.092 3.092 0 00-.998.163l.131-.816c.47-.14.78-.193 1.128-.193.81 0 1.238.369 1.237 1.065.002.186-.029.417-.076.72-.082.524-.258 1.652-.282 1.926h-.78zm-.106-1.63c-.54 0-.813.185-.813.552 0 .226.134.37.342.37.387 0 .667-.37.683-.907a1.575 1.575 0 00-.212-.015zM24.518 11.691l-.154.967c-.337-.171-.58-.24-.842-.24-.703 0-1.197.688-1.197 1.669 0 .676.332 1.084.88 1.084.232 0 .488-.072.8-.228l-.166 1.015c-.347.095-.571.13-.832.13-1.015 0-1.647-.738-1.647-1.923 0-1.592.874-2.705 2.123-2.705.411 0 .897.176 1.035.231M25.94 16.033l.018-.376c-.238.297-.556.44-.987.44-.511 0-.861-.405-.861-.992 0-.885.609-1.4 1.654-1.4.107 0 .244.01.384.029a.908.908 0 00.037-.236c0-.24-.164-.33-.604-.33a3.081 3.081 0 00-.998.163l.131-.816c.47-.14.779-.193 1.128-.193.809 0 1.238.369 1.237 1.065.002.186-.029.417-.076.72-.082.524-.258 1.652-.282 1.926h-.78zm-.106-1.63c-.54 0-.813.185-.813.552 0 .226.133.37.341.37.388 0 .667-.37.683-.907a1.564 1.564 0 00-.211-.015zM16.062 15.976a2.13 2.13 0 01-.677.117c-.481 0-.745-.28-.745-.795-.006-.16.07-.581.13-.966.054-.339.408-2.472.408-2.472h.937l-.11.548h.482l-.129.87h-.482c-.109.69-.264 1.548-.266 1.662 0 .187.099.268.323.268.107 0 .19-.01.254-.034l-.125.802M18.407 13.792H17.38c.086-.416.298-.646.595-.646.532 0 .438.57.433.646zm.53 2.157l.155-.903c-.336.159-.639.23-.974.23-.545 0-.877-.22-.814-.747h1.866c.08-.367.115-.626.115-.892 0-.803-.493-1.315-1.266-1.315-.944 0-1.639.914-1.639 2.155 0 1.063.546 1.619 1.595 1.62.329 0 .64-.048.962-.148zM12.447 13.551c0 .46.22.776.717 1.014.382.182.441.236.441.4 0 .227-.168.329-.541.329-.281 0-.543-.044-.845-.143l-.129.838c.214.047.405.09.98.107.995 0 1.454-.383 1.454-1.213 0-.499-.192-.791-.664-1.011-.395-.184-.44-.225-.44-.395 0-.196.156-.297.46-.297.185 0 .438.02.678.055l.134-.842a6.33 6.33 0 00-.83-.07c-1.054 0-1.419.558-1.415 1.228M30.324 15.197c-.32 0-.483-.24-.483-.715 0-.714.303-1.22.73-1.22.324 0 .5.25.5.712 0 .719-.308 1.223-.747 1.223zm1.39.837l.718-4.461h-.93l-.209 1.289c-.257-.344-.534-.495-.9-.495-.83 0-1.533 1.017-1.533 2.224 0 .908.453 1.506 1.138 1.506.345 0 .61-.12.869-.4l-.044.337zM27.574 12.409c-.118 1.121-.327 2.257-.491 3.379l-.043.243h.943c.337-2.215.418-2.647.947-2.593.084-.454.24-.85.357-1.05-.394-.084-.615.141-.904.57.023-.185.065-.365.057-.55h-.866M19.815 12.409c-.119 1.121-.329 2.257-.492 3.379l-.043.243h.943c.337-2.215.418-2.647.946-2.593.085-.454.242-.85.358-1.05-.394-.084-.615.141-.903.57.023-.185.064-.365.056-.55h-.865"/></svg><svg viewBox="0 0 36 27" id="logo-visa" xmlns="http://www.w3.org/2000/svg"><path fill="#26337a" d="M0 1.8A1.8 1.8 0 011.8 0h32.516a1.8 1.8 0 011.8 1.8v23.4a1.8 1.8 0 01-1.8 1.8H1.8A1.8 1.8 0 010 25.2z"/><path fill="#fffffe" d="M13.31 17.793l1.388-8.578h2.219l-1.388 8.578H13.31M23.578 9.42a5.5 5.5 0 00-1.988-.36c-2.194 0-3.738 1.165-3.751 2.833-.014 1.233 1.102 1.922 1.943 2.332.865.42 1.155.689 1.152 1.065-.006.575-.69.838-1.328.838-.889 0-1.36-.13-2.09-.45l-.286-.137-.31 1.922c.517.239 1.477.446 2.472.457 2.331 0 3.846-1.15 3.864-2.932.008-.978-.583-1.72-1.864-2.332-.775-.398-1.251-.662-1.246-1.064 0-.357.402-.74 1.271-.74a3.903 3.903 0 011.661.33l.2.099.3-1.86M29.273 9.22l1.795 8.578H29.01s-.204-.987-.27-1.286l-2.842-.005c-.086.232-.467 1.29-.467 1.29H23.1l3.295-7.865c.233-.56.631-.712 1.163-.712zm-2.738 5.531h1.842c-.087-.429-.513-2.477-.513-2.477l-.15-.74c-.112.321-.308.84-.295.818 0 0-.7 1.906-.884 2.4zM11.448 9.22l-2.172 5.852-.232-1.19c-.405-1.37-1.665-2.856-3.074-3.6l1.987 7.507 2.348-.002 3.494-8.567h-2.351"/><path fill="#ec982d" d="M7.268 9.21h-3.58l-.029.178c2.784.71 4.626 2.427 5.39 4.49l-.777-3.944C8.14 9.39 7.75 9.23 7.267 9.21"/></svg></svg>